<svg xmlns="http://www.w3.org/2000/svg" viewBox="0 0 800 600">
    <!-- Background gradient -->
    <defs>
        <linearGradient id="bg-gradient" x1="0%" y1="0%" x2="100%" y2="100%">
            <stop offset="0%" style="stop-color:#4158D0"/>
            <stop offset="50%" style="stop-color:#C850C0"/>
            <stop offset="100%" style="stop-color:#FFCC70"/>
        </linearGradient>
        
        <!-- Neural network connection pattern -->
        <pattern id="network-pattern" x="0" y="0" width="60" height="60" patternUnits="userSpaceOnUse">
            <circle cx="30" cy="30" r="2" fill="#ffffff" opacity="0.3"/>
            <line x1="30" y1="30" x2="90" y2="30" stroke="#ffffff" stroke-width="1" opacity="0.2"/>
            <line x1="30" y1="30" x2="30" y2="90" stroke="#ffffff" stroke-width="1" opacity="0.2"/>
        </pattern>
    </defs>

    <!-- Main background -->
    <rect width="800" height="600" fill="url(#bg-gradient)"/>
    <rect width="800" height="600" fill="url(#network-pattern)"/>

    <!-- Abstract NLP elements -->
    <!-- Text bubbles -->
    <g transform="translate(100,150)" opacity="0.9">
        <rect x="0" y="0" width="180" height="80" rx="40" fill="#ffffff" opacity="0.2"/>
        <rect x="40" y="20" width="100" height="10" rx="5" fill="#ffffff" opacity="0.6"/>
        <rect x="40" y="40" width="80" height="10" rx="5" fill="#ffffff" opacity="0.4"/>
    </g>

    <!-- Neural network nodes -->
    <g transform="translate(400,250)">
        <!-- Layer 1 -->
        <circle cx="0" cy="0" r="8" fill="#ffffff" opacity="0.8"/>
        <circle cx="0" cy="50" r="8" fill="#ffffff" opacity="0.8"/>
        <circle cx="0" cy="-50" r="8" fill="#ffffff" opacity="0.8"/>
        
        <!-- Layer 2 -->
        <circle cx="100" cy="25" r="8" fill="#ffffff" opacity="0.8"/>
        <circle cx="100" cy="-25" r="8" fill="#ffffff" opacity="0.8"/>
        
        <!-- Layer 3 -->
        <circle cx="200" cy="0" r="8" fill="#ffffff" opacity="0.8"/>
        
        <!-- Connections -->
        <g opacity="0.3">
            <!-- Layer 1 to 2 -->
            <line x1="8" y1="0" x2="92" y2="25" stroke="#ffffff" stroke-width="2"/>
            <line x1="8" y1="0" x2="92" y2="-25" stroke="#ffffff" stroke-width="2"/>
            <line x1="8" y1="50" x2="92" y2="25" stroke="#ffffff" stroke-width="2"/>
            <line x1="8" y1="50" x2="92" y2="-25" stroke="#ffffff" stroke-width="2"/>
            <line x1="8" y1="-50" x2="92" y2="25" stroke="#ffffff" stroke-width="2"/>
            <line x1="8" y1="-50" x2="92" y2="-25" stroke="#ffffff" stroke-width="2"/>
            
            <!-- Layer 2 to 3 -->
            <line x1="108" y1="25" x2="192" y2="0" stroke="#ffffff" stroke-width="2"/>
            <line x1="108" y1="-25" x2="192" y2="0" stroke="#ffffff" stroke-width="2"/>
        </g>
    </g>

    <!-- Floating text elements -->
    <g transform="translate(600,150)" opacity="0.7">
        <rect x="0" y="0" width="120" height="15" rx="7.5" fill="#ffffff" opacity="0.4"/>
        <rect x="20" y="30" width="80" height="15" rx="7.5" fill="#ffffff" opacity="0.3"/>
        <rect x="40" y="60" width="40" height="15" rx="7.5" fill="#ffffff" opacity="0.2"/>
    </g>

    <!-- Abstract code elements -->
    <g transform="translate(150,400)" opacity="0.6">
        <rect x="0" y="0" width="140" height="12" rx="6" fill="#ffffff" opacity="0.4"/>
        <rect x="20" y="20" width="100" height="12" rx="6" fill="#ffffff" opacity="0.3"/>
        <rect x="40" y="40" width="60" height="12" rx="6" fill="#ffffff" opacity="0.2"/>
    </g>

    <!-- Animated particles -->
    <g>
        <circle cx="200" cy="100" r="3" fill="#ffffff" opacity="0.6"/>
        <circle cx="650" cy="450" r="2" fill="#ffffff" opacity="0.5"/>
        <circle cx="400" cy="300" r="4" fill="#ffffff" opacity="0.7"/>
        <circle cx="150" cy="500" r="3" fill="#ffffff" opacity="0.6"/>
        <circle cx="700" cy="200" r="2" fill="#ffffff" opacity="0.5"/>
    </g>
</svg>
